<svg width="440" height="440" viewBox="0 0 440 440" fill="none" xmlns="http://www.w3.org/2000/svg">
<path d="M372.91 67.5079C344.1 38.6985 317.805 18.285 314.176 21.9131C310.548 25.5413 330.962 51.8372 359.771 80.6466C388.581 109.456 414.877 129.87 418.505 126.241C422.133 122.613 401.719 96.3174 372.91 67.5079Z" fill="white" fill-opacity="0.04"/>
<path d="M339.158 100.842C277.128 38.8122 221.41 -6.03929 214.707 0.663326C208.005 7.36594 252.856 63.0845 314.886 125.114C376.915 187.144 432.634 231.995 439.337 225.293C446.039 218.59 401.188 162.872 339.158 100.842Z" fill="white" fill-opacity="0.04"/>
<path d="M297.239 142.765C217.173 62.699 143.178 6.88165 131.967 18.0933C120.755 29.305 176.572 103.3 256.638 183.366C336.704 263.432 410.699 319.249 421.911 308.037C433.122 296.826 377.305 222.831 297.239 142.765Z" fill="white" fill-opacity="0.04"/>
<path d="M67.5193 372.899C38.7098 344.089 18.2963 317.793 21.9245 314.165C25.5526 310.537 51.8485 330.951 80.658 359.76C109.467 388.57 129.881 414.865 126.253 418.494C122.625 422.122 96.3287 401.708 67.5193 372.899Z" fill="white" fill-opacity="0.04"/>
<path d="M100.842 339.158C38.8122 277.128 -6.03929 221.41 0.663326 214.707C7.36594 208.005 63.0845 252.856 125.114 314.886C187.144 376.915 231.995 432.634 225.293 439.337C218.59 446.039 162.872 401.188 100.842 339.158Z" fill="white" fill-opacity="0.04"/>
<path d="M142.77 297.233C62.7038 217.167 6.88642 143.172 18.0981 131.96C29.3097 120.749 103.305 176.566 183.371 256.632C263.436 336.698 319.254 410.693 308.042 421.904C296.831 433.116 222.835 377.299 142.77 297.233Z" fill="white" fill-opacity="0.04"/>
<path d="M245.154 194.848C158.995 108.689 77.8868 50.1058 63.9941 63.9985C50.1014 77.8912 108.685 158.999 194.844 245.158C281.003 331.318 362.111 389.901 376.004 376.008C389.897 362.116 331.313 281.008 245.154 194.848Z" fill="white" fill-opacity="0.04"/>
</svg>
