<svg width="25" height="24" viewBox="0 0 25 24" fill="none" xmlns="http://www.w3.org/2000/svg">
<path d="M12.4744 0C12.0456 0.00456564 11.6594 0.398163 11.6638 0.826394V8.69002L10.5632 9.89973C10.6363 8.07708 10.7428 6.2533 10.8448 4.42193C10.8107 3.83066 10.364 3.51012 9.82945 3.57844C6.20271 4.48378 3.52945 7.65251 1.9973 11.425C0.464721 15.1974 0.0362961 19.6339 1.05031 23.395C1.14276 23.7373 1.48025 23.9973 1.83523 24C3.50685 23.8001 5.08434 23.1413 6.53622 22.5006C8.03476 21.7674 10.431 20.7553 10.5718 19.0503C10.4491 16.8437 10.4447 14.6318 10.4949 12.4134L12.4829 10.2238L14.5135 12.4474C14.5628 14.6541 14.5504 16.8548 14.4283 19.0502C14.7777 20.9708 17.0161 21.8543 18.4638 22.5005C20.0116 23.0335 21.6121 23.9821 23.1648 24C23.5198 23.9973 23.8573 23.7372 23.9497 23.395C24.9637 19.634 24.5353 15.1973 23.0027 11.425C21.4701 7.65261 18.7973 4.48373 15.1706 3.57839C14.6425 3.47985 14.1431 4.01784 14.1553 4.42188C14.258 6.26772 14.3636 8.10581 14.4368 9.94254L13.302 8.69021V0.826589C13.3066 0.39266 12.909 -0.00433443 12.4745 0.000194694L12.4744 0Z" fill="#1A1D1F"/>
</svg>
