<svg width="16" height="16" viewBox="0 0 16 16" fill="none" xmlns="http://www.w3.org/2000/svg">
<path fill-rule="evenodd" clip-rule="evenodd" d="M0.666504 7.99996C0.666504 5.05444 3.05432 2.66663 5.99984 2.66663C8.94536 2.66663 11.3332 5.05444 11.3332 7.99996C11.3332 10.9455 8.94536 13.3333 5.99984 13.3333C3.05432 13.3333 0.666504 10.9455 0.666504 7.99996ZM11.3332 3.81996V3.69996C11.3332 3.24663 11.8065 2.96663 12.2132 3.15329C14.0532 3.99329 15.3332 5.84663 15.3332 7.99996C15.3332 10.1533 14.0532 12.0066 12.2132 12.84C11.8065 13.0333 11.3332 12.7466 11.3332 12.2933V12.1733C11.3332 11.9266 11.4865 11.72 11.7132 11.6133C13.0665 10.9733 13.9998 9.59329 13.9998 7.99996C13.9998 6.40663 13.0665 5.02663 11.7132 4.38663C11.4865 4.27996 11.3332 4.06663 11.3332 3.81996Z" fill="white"/>
</svg>
