<svg width="144" height="145" viewBox="0 0 144 145" fill="none" xmlns="http://www.w3.org/2000/svg">
<path d="M64.3412 0.278755C66.3516 -2.11407 85.7753 11.1626 107.726 29.9352C129.676 48.7094 145.841 65.8691 143.831 68.2619C141.822 70.6564 122.399 57.3797 100.448 38.6071C78.498 19.8329 62.3324 2.67324 64.3412 0.278755Z" fill="white"/>
<path d="M97.4269 4.57489C98.5151 3.27892 107.661 9.29583 117.857 18.0159C128.052 26.7343 135.434 34.8536 134.346 36.1496C133.258 37.4456 124.111 31.427 113.918 22.7086C103.723 13.9902 96.3403 5.87087 97.4269 4.57489Z" fill="white"/>
<path d="M95.1584 44.9128C66.825 20.6808 41.1317 4.2845 37.77 8.28859C34.4084 12.2943 54.6523 35.1838 82.9857 59.4158C111.319 83.6477 137.012 100.044 140.374 96.04C143.734 92.0342 123.492 69.1447 95.1584 44.9128Z" fill="white"/>
<path d="M9.80491 108.973C8.71668 110.271 16.0992 118.389 26.2943 127.109C36.4895 135.827 45.6358 141.844 46.7241 140.548C47.8123 139.252 40.4281 131.133 30.2346 122.414C20.0395 113.696 10.8931 107.677 9.80491 108.973Z" fill="white"/>
<path d="M36.2758 115.065C14.3255 96.2922 -1.84011 79.1325 0.168673 76.7381C2.1791 74.3436 21.6028 87.6219 43.5531 106.395C65.5034 125.167 81.669 142.327 79.6602 144.721C77.6498 147.114 58.2261 133.837 36.2758 115.065Z" fill="white"/>
<path d="M3.63062 48.9633C0.268948 52.9691 20.5129 75.8586 48.8463 100.091C77.1796 124.321 102.873 140.719 106.235 136.713C109.595 132.709 89.3507 109.818 61.019 85.5859C32.6856 61.3556 6.99064 44.9593 3.63062 48.9633Z" fill="white"/>
<path d="M79.5402 63.5161C49.0518 37.4406 20.9584 20.3241 16.7929 25.2873C12.6274 30.2488 33.9678 55.4117 64.4579 81.4872C94.9463 107.563 123.04 124.679 127.205 119.716C131.371 114.753 110.03 89.5916 79.5402 63.5161Z" fill="white"/>
</svg>
