<svg width="220" height="23" viewBox="0 0 220 23" fill="none" xmlns="http://www.w3.org/2000/svg">
<path d="M218.17 22.2453H194.236C192.209 22.2453 190.367 21.4174 189.033 20.0834C187.699 18.7496 186.871 16.9081 186.871 14.8809V7.5165C186.871 5.48927 187.699 3.64776 189.033 2.31393C190.367 0.979966 192.209 0.152008 194.236 0.152008H215.586C216.596 0.152008 217.536 0.489131 218.292 1.07546C219.045 1.65974 219.605 2.48924 219.859 3.47631C220.11 4.4567 220.019 5.44943 219.641 6.32327C219.26 7.20316 218.598 7.95284 217.712 8.44021L205.901 14.9366L204.132 11.7146L215.943 5.21821C216.102 5.13095 216.216 5.00808 216.275 4.87056C216.337 4.72699 216.351 4.55708 216.306 4.38254C216.263 4.21469 216.171 4.07601 216.048 3.9809C215.928 3.88785 215.768 3.83425 215.586 3.83425H194.236C193.225 3.83425 192.305 4.249 191.637 4.91733C190.968 5.58566 190.554 6.50578 190.554 7.5165V14.8809C190.554 15.8916 190.968 16.8118 191.637 17.48C192.305 18.1484 193.225 18.5631 194.236 18.5631H218.17V22.2453Z" fill="white"/>
<path d="M118.752 0.152008H137.163C139.19 0.152008 141.031 0.979966 142.365 2.31393C143.699 3.64776 144.527 5.48927 144.527 7.5165V14.8809C144.527 16.9081 143.699 18.7496 142.365 20.0836C141.031 21.4174 139.19 22.2453 137.163 22.2453H118.752C116.724 22.2453 114.883 21.4174 113.549 20.0836C112.215 18.7496 111.387 16.9081 111.387 14.8809V7.5165C111.387 5.48927 112.215 3.64776 113.549 2.31393C114.883 0.979966 116.724 0.152008 118.752 0.152008ZM137.163 3.83425H118.752C117.741 3.83425 116.821 4.249 116.152 4.91733C115.484 5.58566 115.069 6.50578 115.069 7.5165V14.8809C115.069 15.8916 115.484 16.8118 116.152 17.48C116.821 18.1484 117.741 18.5631 118.752 18.5631H137.163C138.173 18.5631 139.094 18.1484 139.762 17.48C140.43 16.8118 140.845 15.8916 140.845 14.8809V7.5165C140.845 6.50578 140.43 5.58566 139.762 4.91733C139.094 4.249 138.173 3.83425 137.163 3.83425Z" fill="white"/>
<path d="M37.7446 22.2453V7.5165C37.7446 5.48721 38.5713 3.64584 39.9049 2.31226C41.2383 0.978683 43.0797 0.152008 45.109 0.152008H65.7181C67.0152 0.152008 68.2114 0.635267 69.1291 1.44485C70.0436 2.25173 70.6707 3.37915 70.833 4.67108C70.9946 5.95736 70.6654 7.20251 69.9786 8.21092C69.2929 9.21766 68.2528 9.97955 66.991 10.3018L55.1197 13.3326L70.3525 18.773L69.1156 22.2394L51.9932 16.1243C51.359 15.8979 50.8374 15.4795 50.4771 14.942C50.1202 14.4097 49.9332 13.7713 49.9644 13.099C49.9962 12.4181 50.2415 11.7959 50.646 11.2995C51.0548 10.7976 51.6139 10.4293 52.2677 10.2623L66.0849 6.73455C66.4508 6.64112 66.7497 6.42442 66.9436 6.13974C67.1363 5.85686 67.2274 5.49763 67.1796 5.11694C67.1324 4.7419 66.9554 4.41892 66.6983 4.19207C66.4443 3.96805 66.1011 3.83425 65.7181 3.83425H45.109C44.0962 3.83425 43.1758 4.24811 42.5083 4.91567C41.8407 5.58335 41.4269 6.50359 41.4269 7.5165V22.2453H37.7446Z" fill="white"/>
<path d="M105.862 3.83378H81.9281C80.9174 3.83378 79.9973 4.24853 79.3289 4.91686C78.6606 5.58519 78.2458 6.5053 78.2458 7.51602V14.8804C78.2458 15.8911 78.6606 16.8113 79.3289 17.4796C79.9971 18.1479 80.9174 18.5626 81.9281 18.5626H103.278C103.46 18.5626 103.62 18.509 103.74 18.416C103.863 18.3209 103.955 18.1822 103.998 18.0143C104.043 17.8398 104.03 17.67 103.967 17.5263C103.908 17.3888 103.794 17.2661 103.635 17.1787L91.8236 10.6822L93.5929 7.46025L105.405 13.9568C106.291 14.444 106.953 15.1937 107.333 16.0736C107.711 16.9475 107.803 17.9402 107.551 18.9206C107.297 19.9076 106.737 20.7371 105.984 21.3214C105.228 21.9078 104.288 22.2449 103.278 22.2449H81.9281C79.9009 22.2449 78.0594 21.4169 76.7255 20.083C75.3916 18.7491 74.5636 16.9076 74.5636 14.8804V7.51602C74.5636 5.48893 75.3916 3.64729 76.7255 2.31346C78.0594 0.979493 79.9009 0.151535 81.9281 0.151535H105.862V3.83378Z" fill="white"/>
<path d="M7.36449 0.151581H25.7756C27.8027 0.151581 29.6442 0.979539 30.9782 2.3135C32.312 3.64734 33.14 5.48884 33.14 7.51607V14.8804C33.14 16.9077 32.312 18.7492 30.9782 20.0831C29.6442 21.417 27.8027 22.2449 25.7756 22.2449H7.36449C5.33726 22.2449 3.49576 21.417 2.16192 20.0831C0.827962 18.7492 0 16.9077 0 14.8804V7.51607C0 5.48884 0.827962 3.64734 2.16192 2.3135C3.49576 0.979539 5.33726 0.151581 7.36449 0.151581ZM25.7756 3.83383H7.36449C6.35377 3.83383 5.43366 4.24858 4.76533 4.91691C4.097 5.58524 3.68225 6.50535 3.68225 7.51607V14.8804C3.68225 15.8911 4.097 16.8114 4.76533 17.4796C5.43366 18.1479 6.35377 18.5627 7.36449 18.5627H25.7756C26.7862 18.5627 27.7064 18.1479 28.3748 17.4796C29.043 16.8114 29.4578 15.8911 29.4578 14.8804V7.51607C29.4578 6.50535 29.043 5.58524 28.3748 4.91691C27.7064 4.24858 26.7862 3.83383 25.7756 3.83383Z" fill="white"/>
<path d="M149.132 22.2446V5.65508C149.132 4.50401 149.469 3.42453 150.078 2.51226C150.682 1.60821 151.552 0.886544 152.624 0.44249C153.695 -0.000921561 154.815 -0.106184 155.875 0.104597C156.95 0.318334 157.953 0.84529 158.77 1.66284L175.237 18.1296C175.531 18.4235 175.875 18.6098 176.233 18.681C176.606 18.755 177.003 18.717 177.384 18.5589C177.764 18.4014 178.069 18.1513 178.276 17.8411C178.478 17.539 178.59 17.1616 178.59 16.7409V0.15125H182.272V16.7409C182.272 17.8918 181.935 18.9714 181.325 19.8836C180.721 20.7878 179.852 21.5093 178.779 21.9535C177.709 22.3968 176.588 22.502 175.528 22.2913C174.454 22.0775 173.451 21.5506 172.634 20.7331L156.167 4.26624C155.873 3.9723 155.528 3.78607 155.17 3.715C154.798 3.64084 154.401 3.67888 154.019 3.83697C153.639 3.99441 153.335 4.24452 153.127 4.55478C152.926 4.85694 152.814 5.23429 152.814 5.65508V22.2446H149.132Z" fill="white"/>
</svg>
