<svg width="25" height="24" viewBox="0 0 25 24" fill="none" xmlns="http://www.w3.org/2000/svg">
<path fill-rule="evenodd" clip-rule="evenodd" d="M12.5 24C17 24 22.5 18.6274 22.5 12C22.5 3.2173 19.6431 0.148371 13 0.00531006V3.05003C14.1411 3.28167 15 4.29054 15 5.50002C15 6.88073 13.8807 8.00002 12.5 8.00002C11.1193 8.00002 10 6.88073 10 5.50002C10 4.29054 10.8589 3.28167 12 3.05003V0.00531006C5.3569 0.148371 2.5 3.2173 2.5 12C2.5 18.6274 8 24 12.5 24ZM11 5.50002C11 4.6716 11.6716 4.00002 12.5 4.00002C13.3284 4.00002 14 4.6716 14 5.50002C14 6.32845 13.3284 7.00002 12.5 7.00002C11.6716 7.00002 11 6.32845 11 5.50002ZM7.5 12C8.60457 12 9.5 11.5523 9.5 11C9.5 10.4477 8.60457 10 7.5 10C6.39543 10 5.5 10.4477 5.5 11C5.5 11.5523 6.39543 12 7.5 12ZM19.5 11C19.5 11.5523 18.6046 12 17.5 12C16.3954 12 15.5 11.5523 15.5 11C15.5 10.4477 16.3954 10 17.5 10C18.6046 10 19.5 10.4477 19.5 11Z" fill="#1A1D1F"/>
</svg>
