<svg width="14" height="14" viewBox="0 0 14 14" fill="none" xmlns="http://www.w3.org/2000/svg">
<path d="M13.3 0.710017C13.1131 0.522765 12.8595 0.417532 12.595 0.417532C12.3305 0.417532 12.0768 0.522765 11.89 0.710017L6.99997 5.59002L2.10997 0.700017C1.92314 0.512765 1.66949 0.407532 1.40497 0.407532C1.14045 0.407532 0.886802 0.512765 0.699971 0.700017C0.309971 1.09002 0.309971 1.72002 0.699971 2.11002L5.58997 7.00002L0.699971 11.89C0.309971 12.28 0.309971 12.91 0.699971 13.3C1.08997 13.69 1.71997 13.69 2.10997 13.3L6.99997 8.41002L11.89 13.3C12.28 13.69 12.91 13.69 13.3 13.3C13.69 12.91 13.69 12.28 13.3 11.89L8.40997 7.00002L13.3 2.11002C13.68 1.73002 13.68 1.09002 13.3 0.710017Z" fill="white"/>
</svg>
