<svg width="24" height="24" viewBox="0 0 24 24" fill="none" xmlns="http://www.w3.org/2000/svg">
<path fill-rule="evenodd" clip-rule="evenodd" d="M15.831 6.90222C13.8245 6.90222 12.6807 9.18042 12.6807 12.4852C12.6807 14.3243 14.0682 15.1178 14.0146 17.1069C13.9845 18.2095 13.3179 19.5025 13.3179 20.3138C13.3179 22.6961 14.3268 23.9999 15.8313 23.9999C17.3361 23.9999 18.201 22.0448 18.5568 19.6863C19.0106 16.6753 19.4657 14.7253 19.4657 12.8867C19.4657 9.58177 17.8392 6.90231 15.8327 6.90231H15.8313L15.831 6.90222Z" fill="#1A1D1F"/>
<path fill-rule="evenodd" clip-rule="evenodd" d="M7.63301 0C5.62653 0 4 2.67899 4 5.98437C4 7.82306 4.45458 9.77402 4.90886 12.784C5.26458 15.1425 6.12888 17.0976 7.6344 17.0976C9.1397 17.0976 10.1478 15.7938 10.1478 13.4113C10.1478 12.5999 9.48102 11.3076 9.45107 10.2044C9.39723 8.21519 10.7847 7.42184 10.7847 5.58318C10.7847 2.27828 9.64122 0.00017337 7.63474 0.00017337L7.63301 0Z" fill="#1A1D1F"/>
</svg>
