<svg width="72" height="72" viewBox="0 0 72 72" fill="none" xmlns="http://www.w3.org/2000/svg">
<rect width="72" height="72" rx="36" fill="white"/>
<path d="M30.3582 30.3515C31.9882 28.7215 34.2982 27.7815 36.8382 28.0415C40.5082 28.4115 43.5282 31.3915 43.9382 35.0615C44.4882 39.9115 40.7382 44.0015 36.0082 44.0015C32.8182 44.0015 30.0782 42.1315 28.7982 39.4415C28.4782 38.7715 28.9582 38.0015 29.6982 38.0015C30.0682 38.0015 30.4182 38.2015 30.5782 38.5315C31.7082 40.9615 34.4182 42.5015 37.3782 41.8415C39.5982 41.3515 41.3882 39.5415 41.8582 37.3215C42.6982 33.4415 39.7482 30.0015 36.0082 30.0015C34.3482 30.0015 32.8682 30.6915 31.7882 31.7815L33.2982 33.2915C33.9282 33.9215 33.4882 35.0015 32.5982 35.0015H29.0082C28.4582 35.0015 28.0082 34.5515 28.0082 34.0015V30.4115C28.0082 29.5215 29.0882 29.0715 29.7182 29.7015L30.3582 30.3515Z" fill="#111315"/>
</svg>
